<svg width="30" height="30" viewBox="0 0 30 30" fill="none" xmlns="http://www.w3.org/2000/svg">
<path d="M14.375 8.74995C15.2038 8.74995 15.9986 9.07919 16.5847 9.66524C17.1707 10.2513 17.5 11.0461 17.5 11.8749C17.5 12.7037 17.1707 13.4986 16.5847 14.0847C15.9986 14.6707 15.2038 14.9999 14.375 14.9999C13.5462 14.9999 12.7513 14.6707 12.1653 14.0847C11.5792 13.4986 11.25 12.7037 11.25 11.8749C11.25 11.0461 11.5792 10.2513 12.1653 9.66524C12.7513 9.07919 13.5462 8.74995 14.375 8.74995ZM14.375 9.99995C13.8777 9.99995 13.4008 10.1975 13.0491 10.5491C12.6975 10.9008 12.5 11.3777 12.5 11.8749C12.5 12.3722 12.6975 12.8491 13.0491 13.2008C13.4008 13.5524 13.8777 13.7499 14.375 13.7499C14.8723 13.7499 15.3492 13.5524 15.7008 13.2008C16.0524 12.8491 16.25 12.3722 16.25 11.8749C16.25 11.3777 16.0524 10.9008 15.7008 10.5491C15.3492 10.1975 14.8723 9.99995 14.375 9.99995ZM8.49997 15.4462L14.375 25.1087L20.25 15.4462C20.8836 14.4037 21.2284 13.2114 21.249 11.9916C21.2696 10.7718 20.9653 9.56855 20.3672 8.50525C19.7692 7.44194 18.899 6.55692 17.8459 5.94101C16.7929 5.3251 15.5949 5.00048 14.375 5.00048C13.155 5.00048 11.9571 5.3251 10.904 5.94101C9.85095 6.55692 8.98075 7.44194 8.38271 8.50525C7.78468 9.56855 7.48035 10.7718 7.50095 11.9916C7.52156 13.2114 7.86636 14.4037 8.49997 15.4462ZM21.3175 16.0962L14.375 27.5149L7.43247 16.0962C6.68387 14.8641 6.27657 13.4551 6.25237 12.0136C6.22816 10.5722 6.58792 9.15022 7.29473 7.89372C8.00154 6.63721 9.02994 5.59139 10.2744 4.86359C11.5189 4.13578 12.9346 3.7522 14.3762 3.7522C15.8179 3.7522 17.2336 4.13578 18.478 4.86359C19.7225 5.59139 20.7509 6.63721 21.4577 7.89372C22.1645 9.15022 22.5243 10.5722 22.5001 12.0136C22.4759 13.4551 22.0686 14.8641 21.32 16.0962H21.3175Z" fill="#CF0365"/>
</svg>
