<svg width="31" height="30" viewBox="0 0 31 30" fill="none" xmlns="http://www.w3.org/2000/svg">
<path d="M14.4566 17.5C19.6507 17.5 23.8617 19.4587 23.8617 21.875V25H5.05145V21.875C5.05145 19.4587 9.26245 17.5 14.4566 17.5ZM22.6077 21.875C22.6077 20.15 18.9585 18.75 14.4566 18.75C9.95467 18.75 6.30547 20.15 6.30547 21.875V23.75H22.6077V21.875ZM14.4566 6.25C15.6207 6.25 16.737 6.71094 17.5601 7.53141C18.3832 8.35188 18.8457 9.46468 18.8457 10.625C18.8457 11.7853 18.3832 12.8981 17.5601 13.7186C16.737 14.5391 15.6207 15 14.4566 15C13.2925 15 12.1762 14.5391 11.3531 13.7186C10.5299 12.8981 10.0675 11.7853 10.0675 10.625C10.0675 9.46468 10.5299 8.35188 11.3531 7.53141C12.1762 6.71094 13.2925 6.25 14.4566 6.25ZM14.4566 7.5C13.6251 7.5 12.8277 7.82924 12.2398 8.41529C11.6518 9.00134 11.3215 9.7962 11.3215 10.625C11.3215 11.4538 11.6518 12.2487 12.2398 12.8347C12.8277 13.4208 13.6251 13.75 14.4566 13.75C15.2881 13.75 16.0855 13.4208 16.6734 12.8347C17.2613 12.2487 17.5916 11.4538 17.5916 10.625C17.5916 9.7962 17.2613 9.00134 16.6734 8.41529C16.0855 7.82924 15.2881 7.5 14.4566 7.5Z" fill="#CF0365"/>
<line x1="21" y1="13.5" x2="26" y2="13.5" stroke="#CF0365"/>
<line x1="23.5" y1="16" x2="23.5" y2="11" stroke="#CF0365"/>
</svg>
