<svg width="32" height="32" viewBox="0 0 32 32" fill="none" xmlns="http://www.w3.org/2000/svg">
<path d="M8.00399 16H19.004L14.6707 11.6667L15.556 10.6667L21.556 16.6667L15.556 22.6667L14.6707 21.6667L19.004 17.3333H8.00399V16ZM28.004 16.6667C28.004 18.3301 27.6764 19.9772 27.0398 21.514C26.4032 23.0508 25.4702 24.4471 24.294 25.6234C23.1178 26.7996 21.7214 27.7326 20.1846 28.3691C18.6479 29.0057 17.0007 29.3333 15.3373 29.3333C13.6739 29.3333 12.0268 29.0057 10.49 28.3691C8.95321 27.7326 7.55684 26.7996 6.38064 25.6234C5.20443 24.4471 4.27141 23.0508 3.63485 21.514C2.99829 19.9772 2.67065 18.3301 2.67065 16.6667C2.67065 13.3073 4.00517 10.0854 6.38064 7.70998C8.7561 5.33452 11.9779 4 15.3373 4C18.6967 4 21.9185 5.33452 24.294 7.70998C26.6695 10.0854 28.004 13.3073 28.004 16.6667ZM26.6707 16.6667C26.6707 13.6609 25.4766 10.7782 23.3512 8.65279C21.2258 6.52738 18.3431 5.33333 15.3373 5.33333C12.3315 5.33333 9.44886 6.52738 7.32344 8.65279C5.19803 10.7782 4.00399 13.6609 4.00399 16.6667C4.00399 19.6725 5.19803 22.5551 7.32344 24.6805C9.44886 26.806 12.3315 28 15.3373 28C18.3431 28 21.2258 26.806 23.3512 24.6805C25.4766 22.5551 26.6707 19.6725 26.6707 16.6667Z" fill="#CF0365"/>
</svg>
