<svg width="13" height="12" viewBox="0 0 13 12" fill="none" xmlns="http://www.w3.org/2000/svg">
<path d="M4.91884 1.35071e-08C5.78066 -1.87863e-05 6.62439 0.250514 7.34994 0.721873C8.07549 1.19323 8.65239 1.86563 9.01221 2.6593C9.37203 3.45296 9.49966 4.33458 9.37995 5.19955C9.26024 6.06452 8.89823 6.87653 8.33685 7.53925L12.2483 11.5034L11.7583 12L7.84619 8.03512C7.29445 8.5133 6.63685 8.84926 5.9294 9.01437C5.22194 9.17949 4.48559 9.16886 3.78306 8.98341C3.08053 8.79796 2.43263 8.44317 1.89455 7.94926C1.35646 7.45535 0.944132 6.83696 0.692675 6.14675C0.441217 5.45654 0.358082 4.71495 0.45035 3.98516C0.542619 3.25537 0.807556 2.55899 1.2226 1.95533C1.63764 1.35167 2.19049 0.858621 2.83407 0.518167C3.47764 0.177712 4.19287 -5.65774e-05 4.91884 1.35071e-08V1.35071e-08ZM4.91884 0.702371C3.90793 0.702371 2.93842 1.10937 2.2236 1.83383C1.50878 2.55829 1.10719 3.54087 1.10719 4.56541C1.10719 5.58995 1.50878 6.57253 2.2236 7.29699C2.93842 8.02145 3.90793 8.42845 4.91884 8.42845C5.92975 8.42845 6.89926 8.02145 7.61409 7.29699C8.32891 6.57253 8.73049 5.58995 8.73049 4.56541C8.73049 3.54087 8.32891 2.55829 7.61409 1.83383C6.89926 1.10937 5.92975 0.702371 4.91884 0.702371Z" fill="#777777"/>
</svg>
