<svg width="30" height="30" viewBox="0 0 30 30" fill="none" xmlns="http://www.w3.org/2000/svg">
<path d="M17.5 13.75C16.5054 13.75 15.5516 13.3549 14.8483 12.6517C14.1451 11.9484 13.75 10.9946 13.75 10V5H8.75C8.08696 5 7.45107 5.26339 6.98223 5.73223C6.51339 6.20107 6.25 6.83696 6.25 7.5V23.75C6.25 24.413 6.51339 25.0489 6.98223 25.5178C7.45107 25.9866 8.08696 26.25 8.75 26.25H20C20.663 26.25 21.2989 25.9866 21.7678 25.5178C22.2366 25.0489 22.5 24.413 22.5 23.75V13.75H17.5ZM15 10C15 10.663 15.2634 11.2989 15.7322 11.7678C16.2011 12.2366 16.837 12.5 17.5 12.5H21.9825L15 5.5175V10ZM8.75 3.75H15L23.75 12.5V23.75C23.75 24.7446 23.3549 25.6984 22.6517 26.4017C21.9484 27.1049 20.9946 27.5 20 27.5H8.75C7.75544 27.5 6.80161 27.1049 6.09835 26.4017C5.39509 25.6984 5 24.7446 5 23.75V7.5C5 6.50544 5.39509 5.55161 6.09835 4.84835C6.80161 4.14509 7.75544 3.75 8.75 3.75Z" fill="#CF0365"/>
</svg>
