<svg width="22" height="24" viewBox="0 0 22 24" fill="none" xmlns="http://www.w3.org/2000/svg">
<path d="M21.152 12.2133L11.8404 21.4941C9.14445 24.1811 4.78125 24.1811 2.08535 21.4941C-0.610643 18.8071 -0.610643 14.4583 2.08535 11.7713L12.2838 1.60665C14.2437 -0.346748 17.4185 -0.346748 19.3784 1.60665C21.3383 3.56005 21.3383 6.72435 19.3784 8.67765L10.0667 17.9585C9.47875 18.5446 8.68125 18.8738 7.84965 18.8738C7.01815 18.8738 6.22065 18.5446 5.63265 17.9585C5.04465 17.3725 4.71425 16.5776 4.71425 15.7488C4.71425 14.92 5.04465 14.1252 5.63265 13.5391L14.0574 5.14215L14.9443 6.02605L6.51945 14.423C6.16665 14.7746 5.96845 15.2515 5.96845 15.7488C5.96845 16.2461 6.16665 16.723 6.51945 17.0746C6.87225 17.4263 7.35075 17.6238 7.84965 17.6238C8.34865 17.6238 8.82715 17.4263 9.17995 17.0746L18.4916 7.79385C19.1972 7.09055 19.5936 6.13675 19.5936 5.14215C19.5936 4.14765 19.1972 3.19375 18.4916 2.49055C17.786 1.78725 16.829 1.39215 15.8311 1.39215C14.8332 1.39215 13.8762 1.78725 13.1706 2.49055L2.97215 12.6552C1.91375 13.7101 1.31915 15.1409 1.31915 16.6327C1.31915 18.1245 1.91375 19.5553 2.97215 20.6102C4.03055 21.6651 5.46605 22.2577 6.96285 22.2577C8.45965 22.2577 9.89515 21.6651 10.9535 20.6102L20.2652 11.3294L21.152 12.2133Z" fill="#CF0365"/>
</svg>
