<svg width="31" height="30" viewBox="0 0 31 30" fill="none" xmlns="http://www.w3.org/2000/svg">
<path d="M24.6023 19.365L22.3275 17.7525C22.7096 16.3522 22.7074 14.8753 22.3213 13.4762L24.6036 11.8837L22.7815 8.7412L20.2434 9.8987C19.2175 8.86873 17.9329 8.13225 16.5239 7.7662L16.2819 4.99995H12.6377L12.3957 7.7662C10.987 8.13276 9.7029 8.86967 8.67754 9.89995L6.13815 8.74245L4.31731 11.885L6.59963 13.4775C6.21329 14.8761 6.21069 16.3525 6.59211 17.7525L4.31731 19.365L6.13815 22.4925L8.67754 21.3337C9.70304 22.3635 10.9871 23.1 12.3957 23.4662L12.6377 26.2325H16.2819L16.5239 23.4662C17.9325 23.0999 19.2166 22.3635 20.2421 21.3337L22.7815 22.4925L24.6036 19.3662L24.6023 19.365ZM16.9741 3.7312C17.1355 3.73103 17.2908 3.79292 17.4076 3.90398C17.5244 4.01504 17.5937 4.16672 17.6011 4.32745L17.8244 6.8712C18.7514 7.22334 19.6162 7.7204 20.3863 8.3437L22.7063 7.26495C22.8495 7.19146 23.0157 7.17579 23.1703 7.22117C23.3249 7.26656 23.456 7.36952 23.5364 7.5087L26.0507 11.8462C26.1315 11.9852 26.1555 12.1499 26.1176 12.3061C26.0798 12.4623 25.9831 12.598 25.8476 12.685L23.7483 14.15C23.9089 15.1475 23.9038 16.1412 23.7496 17.0987L25.8476 18.5612C25.9834 18.6482 26.0804 18.7841 26.1182 18.9406C26.1561 19.0971 26.1319 19.2621 26.0507 19.4012L23.5364 23.7225C23.456 23.8616 23.3249 23.9646 23.1703 24.01C23.0157 24.0554 22.8495 24.0397 22.7063 23.9662L20.3863 22.8875C19.6314 23.5 18.7711 24 17.8244 24.3612L17.6011 26.905C17.5934 27.0655 17.5239 27.2168 17.4072 27.3276C17.2904 27.4384 17.1353 27.5001 16.9741 27.5H11.9455C11.7843 27.5001 11.6292 27.4384 11.5125 27.3276C11.3957 27.2168 11.3262 27.0655 11.3185 26.905L11.0953 24.3612C10.1682 24.0086 9.30342 23.5111 8.53333 22.8875L6.21339 23.9662C6.07013 24.0402 5.90377 24.0562 5.74892 24.0111C5.59407 23.9659 5.46264 23.863 5.38198 23.7237L2.86892 19.4C2.78814 19.2609 2.76417 19.0962 2.802 18.94C2.83983 18.7838 2.93655 18.6482 3.07207 18.5612L5.17005 17.0975C5.01294 16.1208 5.01294 15.1254 5.17005 14.1487L3.07333 12.685C2.93813 12.598 2.84164 12.4626 2.80383 12.3067C2.76602 12.1508 2.78977 11.9864 2.87018 11.8475L5.38072 7.5087C5.46118 7.3692 5.59251 7.26601 5.74738 7.2206C5.90225 7.1752 6.06872 7.19108 6.21214 7.26495L8.53207 8.3437C9.30221 7.7204 10.167 7.22334 11.094 6.8712L11.3173 4.32745C11.3247 4.16672 11.394 4.01504 11.5108 3.90398C11.6276 3.79292 11.7828 3.73103 11.9443 3.7312H16.9729H16.9741ZM14.4598 11.25C15.6239 11.25 16.7403 11.7109 17.5634 12.5314C18.3865 13.3518 18.8489 14.4646 18.8489 15.625C18.8489 16.7853 18.3865 17.8981 17.5634 18.7185C16.7403 19.539 15.6239 20 14.4598 20C13.2958 20 12.1794 19.539 11.3563 18.7185C10.5332 17.8981 10.0708 16.7853 10.0708 15.625C10.0708 14.4646 10.5332 13.3518 11.3563 12.5314C12.1794 11.7109 13.2958 11.25 14.4598 11.25ZM14.4598 12.5C13.6284 12.5 12.8309 12.8292 12.243 13.4152C11.6551 14.0013 11.3248 14.7962 11.3248 15.625C11.3248 16.4538 11.6551 17.2486 12.243 17.8347C12.8309 18.4207 13.6284 18.75 14.4598 18.75C15.2913 18.75 16.0887 18.4207 16.6766 17.8347C17.2646 17.2486 17.5949 16.4538 17.5949 15.625C17.5949 14.7962 17.2646 14.0013 16.6766 13.4152C16.0887 12.8292 15.2913 12.5 14.4598 12.5Z" fill="#CF0365"/>
</svg>
