<svg width="30" height="30" viewBox="0 0 30 30" fill="none" xmlns="http://www.w3.org/2000/svg">
<path d="M3.75 25.7325L8.2325 21.25H22.5C23.163 21.25 23.7989 20.9866 24.2678 20.5178C24.7366 20.0489 25 19.413 25 18.75V18.6425L18.4913 12.1337L12.2413 18.3837L9.11625 15.2587L3.75 20.625V25.7325ZM25 7.5C25 6.83696 24.7366 6.20107 24.2678 5.73223C23.7989 5.26339 23.163 5 22.5 5H6.25C5.58696 5 4.95107 5.26339 4.48223 5.73223C4.01339 6.20107 3.75 6.83696 3.75 7.5V18.8575L9.11625 13.4913L12.2413 16.6163L18.4913 10.3663L25 16.875V7.5ZM3.75 27.5H2.5V7.5C2.5 6.50544 2.89509 5.55161 3.59835 4.84835C4.30161 4.14509 5.25544 3.75 6.25 3.75H22.5C23.4946 3.75 24.4484 4.14509 25.1517 4.84835C25.8549 5.55161 26.25 6.50544 26.25 7.5V18.75C26.25 19.7446 25.8549 20.6984 25.1517 21.4017C24.4484 22.1049 23.4946 22.5 22.5 22.5H8.75L3.75 27.5ZM11.25 7.5C11.913 7.5 12.5489 7.76339 13.0178 8.23223C13.4866 8.70107 13.75 9.33696 13.75 10C13.75 10.663 13.4866 11.2989 13.0178 11.7678C12.5489 12.2366 11.913 12.5 11.25 12.5C10.587 12.5 9.95107 12.2366 9.48223 11.7678C9.01339 11.2989 8.75 10.663 8.75 10C8.75 9.33696 9.01339 8.70107 9.48223 8.23223C9.95107 7.76339 10.587 7.5 11.25 7.5ZM11.25 8.75C10.9185 8.75 10.6005 8.8817 10.3661 9.11612C10.1317 9.35054 10 9.66848 10 10C10 10.3315 10.1317 10.6495 10.3661 10.8839C10.6005 11.1183 10.9185 11.25 11.25 11.25C11.5815 11.25 11.8995 11.1183 12.1339 10.8839C12.3683 10.6495 12.5 10.3315 12.5 10C12.5 9.66848 12.3683 9.35054 12.1339 9.11612C11.8995 8.8817 11.5815 8.75 11.25 8.75Z" fill="#CF0365"/>
</svg>
